<?xml version="1.0" encoding="UTF-8" standalone="no"?>
<svg
   version="1.1"
   width="84"
   height="84"
   viewBox="-180 -180 650 10"
   id="svg227"
   xmlns="http://www.w3.org/2000/svg"
   xmlns:svg="http://www.w3.org/2000/svg">
  <defs
     id="defs227" />
  <path
     d="M -4.1356889e-6,1.0215587e-5 V 148.27651 H 243.8864 V 1.0215587e-5 Z"
     style="display:inline;fill:#17aaab;fill-rule:evenodd"
     id="path2" />
  <path
     d="m 165.7498,112.82791 v 13.1358 h 29.689 v -13.1358 z"
     style="display:inline;fill:#d9dadb;fill-rule:evenodd"
     id="path3" />
  <path
     d="m 101.1794,42.53551 c -2.581204,0 7.4501,0 -12.039704,0 -19.4898,0 -18.9157,21.2713 -18.9157,21.2713 v 59.4347 h 14.3305 v -58.1834 c 0,0 -1.1473,-9.3845 4.5852,-9.3845 5.7326,0 14.617404,0 14.619104,0 0.002,0 3.7277,0 9.4603,0 5.7325,0 4.5851,9.3845 4.5851,9.3845 v 40.8222 h 14.3305 v -42.0735 c 0,0 0.5742,-21.2713 -18.9156,-21.2713 -19.489904,0 -9.4585,0 -12.0397,0 z"
     style="display:inline;fill:#ffffff;fill-rule:evenodd"
     id="path4" />
  <path
     d="m 171.6438,42.53551 c -2.5812,0 7.4502,0 -12.0396,0 -19.4899,0 -18.9157,21.2713 -18.9157,21.2713 v 41.6039 h 14.3305 v -40.3526 c 0,0 -1.1474,-9.3845 4.5852,-9.3845 5.7325,0 14.6173,0 14.619,0 0.002,0 3.7277,0 9.4603,0 5.7325,0 4.5852,9.3845 4.5852,9.3845 v 40.8222 h 14.3305 v -42.0735 c 0,0 0.5741,-21.2713 -18.9157,-21.2713 -19.4898,0 -9.4585,0 -12.0397,0 z"
     style="display:inline;fill:#ffffff;fill-rule:evenodd"
     id="path5" />
  <path
     d="m 75.072596,125.96371 c -2.8172,0 8.1313,0 -13.1405,0 -21.2717,0 -20.6451,-21.2714 -20.6451,-21.2714 v -69.3243 c 6.6549,-3.8065 12.1043,-9.4782 15.6388,-16.3024 h 0.002 v 84.3754 c 0,0 -1.2523,9.3846 5.0044,9.3846 6.2567,0 15.9538,0 15.9557,0 0.002,0 4.0685,0 10.3252,0 3.7757,0 4.8162,-3.4173 5.0484,-6.1276 -0.1088,-1.2395 -0.0861,-2.0057 -0.0861,-2.0057 v -24.7122 h 0.0421 15.598604 0.0421 v 24.7122 c 0,0 0.0227,0.7662 -0.0861,2.0057 0.2322,2.7103 1.2727,6.1276 5.0484,6.1276 6.2567,0 10.3233,0 10.3252,0 h 50.3286 v 13.1381 H 126.961 c -2.8172,0 8.1313,0 -13.1405,0 -5.6929,0 -9.8163,-1.5247 -12.8037,-3.756 -2.987404,2.2313 -7.110804,3.756 -12.803704,3.756 -21.2718,0 -10.3233,0 -13.1404,0 z"
     style="display:inline;fill:#1b1918;fill-rule:evenodd"
     id="path6" />
  <path
     d="m 195.439,112.82931 a 6.5674,6.5674 0 0 1 6.5674,6.5674 6.5674,6.5674 0 1 1 -6.5674,-6.5674 z"
     style="display:inline;fill:#1b1918;fill-rule:evenodd"
     id="path7" />
</svg>
